<?xml version="1.0" standalone="no"?><!DOCTYPE svg PUBLIC "-//W3C//DTD SVG 1.1//EN" "http://www.w3.org/Graphics/SVG/1.1/DTD/svg11.dtd"><svg t="1589382214316" class="icon" viewBox="0 0 1024 1024" version="1.1" xmlns="http://www.w3.org/2000/svg" p-id="6894" xmlns:xlink="http://www.w3.org/1999/xlink" width="200" height="200"><defs><style type="text/css"></style></defs><path fill="#00ffff" d="M966.912 1024h-147.776a34.368 34.368 0 0 1 0-68.736h113.408c12.672 0 22.912-10.24 22.912-22.912v-113.408a34.368 34.368 0 1 1 68.736 0v147.84c0 31.552-25.6 57.216-57.28 57.216z m22.912-784.64a34.368 34.368 0 0 1-34.368-34.304V91.648a22.912 22.912 0 0 0-22.912-22.912h-113.408a34.368 34.368 0 0 1 0-68.736h147.84c31.552 0 57.216 25.6 57.216 57.28v147.776c0 18.944-15.36 34.304-34.368 34.304z m-179.84 32.128v481.024c0 31.68-25.6 57.28-57.28 57.28H271.68a57.28 57.28 0 0 1-57.28-57.28V271.488c0-31.68 25.6-57.28 57.28-57.28h481.024c31.68 0 57.28 25.6 57.28 57.28z m-68.736 34.368a22.912 22.912 0 0 0-22.912-22.912H306.112a22.912 22.912 0 0 0-22.912 22.912v412.288c0 12.672 10.24 22.912 22.912 22.912h412.288c12.672 0 22.912-10.24 22.912-22.912V305.92zM205.248 68.736H91.84a22.912 22.912 0 0 0-22.912 22.912v113.408a34.368 34.368 0 0 1-68.736 0V57.216C0.192 25.728 25.792 0 57.472 0h147.776a34.368 34.368 0 0 1 0 68.736zM34.56 784.64a34.368 34.368 0 0 1 34.368 34.304v113.408c0 12.672 10.24 22.912 22.912 22.912h113.408a34.368 34.368 0 1 1 0 68.736H57.408A57.28 57.28 0 0 1 0.192 966.72v-147.776c0-18.944 15.36-34.304 34.368-34.304z" p-id="6895"></path></svg>