<?xml version="1.0" standalone="no"?><!DOCTYPE svg PUBLIC "-//W3C//DTD SVG 1.1//EN" "http://www.w3.org/Graphics/SVG/1.1/DTD/svg11.dtd"><svg t="1589463225647" class="icon" viewBox="0 0 1024 1024" version="1.1" xmlns="http://www.w3.org/2000/svg" p-id="3021" xmlns:xlink="http://www.w3.org/1999/xlink" width="200" height="200"><defs><style type="text/css"></style></defs><path fill="#00ffff" d="M915.456 766.976c-6.144-10.24-17.408-17.408-29.696-17.408h-33.792V238.592c0-18.432-15.36-33.792-33.792-33.792H238.592v-61.44c0-18.432-15.36-33.792-33.792-33.792-18.432 0-33.792 15.36-33.792 33.792v61.44h-33.792c-18.432 0-33.792 15.36-33.792 33.792 0 18.432 15.36 33.792 33.792 33.792h33.792v510.976c0 9.216 3.072 17.408 10.24 24.576 6.144 6.144 14.336 10.24 24.576 10.24h579.584v61.44c0 12.288 6.144 23.552 17.408 29.696 10.24 6.144 23.552 6.144 33.792 0s17.408-17.408 17.408-29.696v-61.44h33.792c12.288 0 23.552-6.144 29.696-17.408 4.096-10.24 4.096-23.552-2.048-33.792z m-125.952-15.36H233.472V265.216h556.032v486.4z m0 0" p-id="3022"></path><path fill="#00ffff" d="M340.992 422.912c-17.408 0-32.768-9.216-41.984-23.552-8.192-14.336-8.192-32.768 0-48.128 8.192-14.336 24.576-23.552 41.984-23.552 26.624 0 47.104 21.504 47.104 48.128 0 25.6-20.48 47.104-47.104 47.104z m-27.648 275.456c-10.24 0-19.456-6.144-24.576-15.36s-4.096-20.48 2.048-28.672l143.36-193.536c5.12-6.144 12.288-10.24 20.48-11.264 8.192 0 16.384 3.072 21.504 9.216l12.288 13.312c5.12 6.144 13.312 9.216 20.48 9.216 8.192 0 15.36-4.096 20.48-10.24l34.816-41.984c6.144-7.168 14.336-10.24 23.552-10.24 9.216 1.024 16.384 6.144 21.504 13.312L739.328 655.36c5.12 8.192 5.12 18.432 0 27.648-5.12 8.192-14.336 13.312-23.552 13.312l-402.432 2.048z m0 0" p-id="3023"></path></svg>