<?xml version="1.0" standalone="no"?><!DOCTYPE svg PUBLIC "-//W3C//DTD SVG 1.1//EN" "http://www.w3.org/Graphics/SVG/1.1/DTD/svg11.dtd"><svg t="1589382246660" class="icon" viewBox="0 0 1024 1024" version="1.1" xmlns="http://www.w3.org/2000/svg" p-id="9007" xmlns:xlink="http://www.w3.org/1999/xlink" width="200" height="200"><defs><style type="text/css"></style></defs><path fill="#00ffff" d="M512 80.164571c130.048 0.146286 235.422476 103.960381 235.568762 232.057905 0 123.367619-144.505905 295.350857-230.863238 400.262095l-5.436953 6.631619-4.291047-5.12c-48.39619-57.660952-108.641524-125.415619-155.550476-200.143238-49.761524-79.286857-74.99581-147.065905-74.99581-201.630476 0.146286-128.097524 105.520762-231.911619 235.568762-232.057905zM512 0C336.944762 0 195.047619 139.776 195.047619 312.222476 195.047619 516.85181 439.53981 751.006476 512 853.333333c67.779048-98.816 316.952381-345.648762 316.952381-541.110857C828.952381 139.776 687.055238 0 512 0z" p-id="9008"></path><path fill="#00ffff" d="M718.214095 731.721143l-50.639238 69.485714c118.979048 12.166095 201.020952 37.790476 201.020953 67.584 0 41.374476-159.622095 74.971429-356.547048 74.971429-196.924952 0-356.59581-33.596952-356.59581-74.971429 0-29.915429 83.260952-55.710476 203.678477-67.584L308.370286 731.428571C168.521143 757.223619 73.142857 809.057524 73.142857 868.790857 73.142857 954.514286 269.653333 1024 512 1024s438.857143-69.485714 438.857143-155.209143c0-59.343238-94.232381-110.933333-232.643048-137.069714zM438.857143 329.142857a85.333333 85.333333 0 1 0 170.666667 0 85.333333 85.333333 0 0 0-170.666667 0z" p-id="9009"></path></svg>