<?xml version="1.0" standalone="no"?><!DOCTYPE svg PUBLIC "-//W3C//DTD SVG 1.1//EN" "http://www.w3.org/Graphics/SVG/1.1/DTD/svg11.dtd"><svg t="1589381346554" class="icon" viewBox="0 0 1024 1024" version="1.1" xmlns="http://www.w3.org/2000/svg" p-id="4501" xmlns:xlink="http://www.w3.org/1999/xlink" width="200" height="200"><defs><style type="text/css"></style></defs><path d="M512 68.266667c-130.133333 0-247.466667 55.893333-328.533333 145.493333l-115.2-115.2v285.44h285.44l-102.826667-102.826667c4.693333-5.12 9.386667-10.666667 14.506667-15.36 32-32 69.546667-57.173333 110.933333-74.666666C419.413333 172.373333 465.066667 163.413333 512 163.413333s92.586667 9.386667 135.68 27.306667c41.386667 17.493333 78.933333 42.666667 110.933333 74.666667s57.173333 69.546667 74.666667 110.933333c18.346667 43.093333 27.306667 88.746667 27.306667 135.68s-9.386667 92.586667-27.306667 135.68c-17.493333 41.386667-42.666667 78.933333-74.666667 110.933333s-69.546667 57.173333-110.933333 74.666667C604.586667 851.2 558.933333 860.586667 512 860.586667s-92.586667-9.386667-135.68-27.306667c-41.386667-17.493333-78.933333-42.666667-110.933333-74.666667s-57.173333-69.546667-74.666667-110.933333c-18.346667-43.093333-27.306667-88.746667-27.306667-135.68v-2.986667H68.266667v2.986667c0 244.906667 198.826667 443.733333 443.733333 443.733333s443.733333-198.826667 443.733333-443.733333-198.826667-443.733333-443.733333-443.733333z" fill="#00ffff" p-id="4502"></path><path d="M512.853333 510.293333m-158.293333 0a158.293333 158.293333 0 1 0 316.586667 0 158.293333 158.293333 0 1 0-316.586667 0Z" fill="#00ffff" p-id="4503"></path></svg>