<?xml version="1.0" standalone="no"?><!DOCTYPE svg PUBLIC "-//W3C//DTD SVG 1.1//EN" "http://www.w3.org/Graphics/SVG/1.1/DTD/svg11.dtd"><svg t="1589381086813" class="icon" viewBox="0 0 1024 1024" version="1.1" xmlns="http://www.w3.org/2000/svg" p-id="2901" xmlns:xlink="http://www.w3.org/1999/xlink" width="200" height="200"><defs><style type="text/css"></style></defs><path d="M257.085 471.854H384.93v127.833H257.085z m193.16 0h127.84v127.833h-127.84z m193.159 0h127.842v127.833H643.404z m-386.32 186.645h127.842v127.835H257.083z m193.162 0h127.84v127.835h-127.84z m193.158 0h127.842v127.835H643.404zM779.42 253.212c21.778 0 39.436-17.656 39.436-39.437v-99.24c0-21.774-17.656-39.433-39.436-39.433s-39.44 17.658-39.44 39.433v99.24c0 21.78 17.662 39.437 39.44 39.437z m-532.814-0.174c21.775 0 39.436-17.661 39.436-39.44v-99.24c0-21.78-17.66-39.437-39.436-39.437-21.782 0-39.44 17.658-39.44 39.437v99.24c0 21.78 17.658 39.44 39.44 39.44z" p-id="2902"></path><path d="M910.063 171.936h-43.378v41.839c0 48.119-39.146 87.265-87.264 87.265-48.12 0-87.269-39.147-87.269-87.265v-41.84H333.87V213.6c0 48.12-39.147 87.267-87.264 87.267-48.12 0-87.269-39.148-87.269-87.267v-41.663h-45.4c-26.963 0-49.025 22.061-49.025 49.024v679.094c0 26.963 22.062 49.025 49.025 49.025h796.125c26.963 0 49.025-22.062 49.025-49.025V220.96c0-26.963-22.06-49.024-49.024-49.024zM872.27 864.245H151.72V381.428h720.55v482.817z" p-id="2903"></path></svg>